<?xml version="1.0" encoding="utf-8"?><svg xmlns="http://www.w3.org/2000/svg" xmlns:xlink="http://www.w3.org/1999/xlink"><symbol viewBox="-10 -10 532 532" id="codepen"><path d="M427 201.9c-.6-4.2-2.9-8-6.4-10.3L264.2 87.3c-4.9-3.3-11.4-3.3-16.3 0L91.4 191.6c-4 2.7-6.5 7.4-6.5 12.2v104.3c0 4.8 2.5 9.6 6.5 12.2l156.4 104.3c4.9 3.3 11.4 3.3 16.3 0l156.5-104.2c4-2.6 6.6-7.4 6.6-12.2V203.9c-.1-.7-.1-1.3-.2-2 0-.2.1.7 0 0zm-156.3-74.8l115.2 76.8-51.5 34.4-63.8-42.7v-68.5zm-29.4 0v68.6l-63.8 42.7L126 204l115.3-76.9zm-127 104.3l36.8 24.6-36.8 24.6v-49.2zm127 153.5l-115.2-76.8 51.5-34.4 63.8 42.6v68.6zm14.7-94.1L204 256l52-34.8 52 34.8-52 34.8zm14.7 94.1v-68.6l63.8-42.6 51.5 34.4-115.3 76.8zm127-104.3L360.9 256l36.8-24.6v49.2z"/></symbol><symbol viewBox="-10 -10 532 532" id="github"><path d="M256 70.7c-102.6 0-185.9 83.2-185.9 185.9 0 82.1 53.3 151.8 127.1 176.4 9.3 1.7 12.3-4 12.3-8.9v-34.7c-51.7 11.3-62.5-21.9-62.5-21.9-8.4-21.5-20.6-27.2-20.6-27.2-16.9-11.5 1.3-11.3 1.3-11.3 18.7 1.3 28.5 19.2 28.5 19.2 16.6 28.4 43.5 20.2 54.1 15.4 1.7-12 6.5-20.2 11.8-24.9-41.3-4.7-84.7-20.6-84.7-91.9 0-20.3 7.3-36.9 19.2-49.9-1.9-4.7-8.3-23.6 1.8-49.2 0 0 15.6-5 51.1 19.1 14.8-4.1 30.7-6.2 46.5-6.3 15.8.1 31.7 2.1 46.6 6.3 35.5-24 51.1-19.1 51.1-19.1 10.1 25.6 3.8 44.5 1.8 49.2 11.9 13 19.1 29.6 19.1 49.9 0 71.4-43.5 87.1-84.9 91.7 6.7 5.8 12.8 17.1 12.8 34.4v51c0 4.9 3 10.7 12.4 8.9 73.8-24.6 127-94.3 127-176.4 0-102.5-83.3-185.7-185.9-185.7z"/></symbol><symbol viewBox="-10 -10 532 532" id="linkedin"><path d="M186.4 142.4c0 19-15.3 34.5-34.2 34.5-18.9 0-34.2-15.4-34.2-34.5 0-19 15.3-34.5 34.2-34.5 18.9 0 34.2 15.5 34.2 34.5zm-5 58.9h-57.8v186.8h57.8V201.3zm92.4 0h-55.4v186.8h55.4v-98c0-26.3 12.1-41.9 35.2-41.9 21.3 0 31.5 15 31.5 41.9v98H398V269.8c0-50-28.3-74.2-68-74.2-39.6 0-56.3 30.9-56.3 30.9v-25.2h.1z"/></symbol><symbol viewBox="-10 -10 194 192" id="logo"><path d="M0 0v172c47.5 0 86-38.5 86-86V0H0zm88 86c0 47.5 38.5 86 86 86V0c-47.5 0-86 38.5-86 86z"/></symbol><symbol viewBox="-10 -10 532 532" id="message"><path d="M101.3 141.6v228.9h309.5V141.6H101.3zm274.4 26.2L256 259.3l-119.6-91.5h239.3zm-248.1 26.3l64.1 49.1-64.1 64.1V194.1zm.2 150.1l84.9-84.9 43.2 33.1 43-32.9 84.7 84.7H127.8zm256.6-36.4L320 243.4l64.4-49.3v113.7z"/></symbol><symbol viewBox="-10 -10 532 532" id="twitter"><path d="M419.6 168.6c-11.7 5.2-24.2 8.7-37.4 10.2 13.4-8.1 23.8-20.8 28.6-36-12.6 7.5-26.5 12.9-41.3 15.8C357.6 146 340.7 138 322 138c-42 0-72.9 39.2-63.4 79.9-54.1-2.7-102.1-28.6-134.2-68-17 29.2-8.8 67.5 20.1 86.9-10.7-.3-20.7-3.3-29.5-8.1-.7 30.2 20.9 58.4 52.2 64.6-9.2 2.5-19.2 3.1-29.4 1.1 8.3 25.9 32.3 44.7 60.8 45.2-27.4 21.4-61.8 31-96.4 27 28.8 18.5 63 29.2 99.8 29.2 120.8 0 189.1-102.1 185-193.6 12.9-9.1 23.9-20.5 32.6-33.6z"/></symbol></svg>